<?xml version="1.0" encoding="UTF-8" standalone="no"?>
<svg width="553.43" xmlns="http://www.w3.org/2000/svg" xmlns:xlink="http://www.w3.org/1999/xlink" height="356.35">
 <defs>
  <linearGradient id="linearGradient3830" y2=".86956" x2=".17924" y1=".20186" x1=".74528">
   <stop id="stop5373" stop-color="#ace" offset="0"/>
   <stop id="stop5375" stop-color="#0197fd" offset="1"/>
  </linearGradient>
  <linearGradient id="linearGradient3024" y2="1.0632" x2=".15927" y1=".41238" x1=".045015">
   <stop id="stop5389" stop-color="#f0a513" offset="0"/>
   <stop id="stop5391" stop-color="#ff0" offset="1"/>
  </linearGradient>
  <linearGradient id="linearGradient5430" y2="1.0076" x2=".59192" y1=".015822" x1=".53237">
   <stop id="stop5411" stop-color="#eee" offset="0"/>
   <stop id="stop5413" stop-color="#eee" stop-opacity="0" offset="1"/>
  </linearGradient>
 </defs>
 <path id="path5350" fill="#eee" d="m187.98 171.56c-7.5395 23.749-26.808 38.825-43.037 33.673-16.229-5.1521-23.273-28.581-15.734-52.33 7.5395-23.749 26.808-38.825 43.037-33.673 16.229 5.1521 23.273 28.581 15.734 52.33z"/>
 <path id="path3036" fill="url(#linearGradient3830)" d="m425.27 192.71c0 89.821-71.91 162.64-160.61 162.64-88.705 0-160.61-72.814-160.61-162.64 0-89.821 71.909-162.64 160.61-162.64 88.705 0 160.61 72.814 160.61 162.64z"/>
 <path id="path3036-6" fill="#71b6ff" d="m290.64 318.31c-18.626 31.196-70.438 34.565-115.72 7.5258-45.287-27.039-66.9-74.248-48.274-105.44 18.626-31.196 70.438-34.565 115.72-7.5258 45.287 27.039 66.9 74.248 48.274 105.44z"/>
 <path id="path5407" opacity=".539" fill="url(#linearGradient5430)" d="m263.04 159.66c-6.6945 23.319-42.091 33.619-79.06 23.006s-61.512-38.121-54.818-61.44c6.6945-23.319 42.091-33.619 79.06-23.006s61.512 38.121 54.818 61.44z"/>
 <path id="path5352" fill="#333" d="m161.89 147.74c-3.6124 11.379-12.718 18.642-20.339 16.223-7.6205-2.4192-10.87-13.605-7.2575-24.984 3.6124-11.379 12.718-18.642 20.339-16.223 7.6206 2.4192 10.87 13.605 7.2575 24.984z"/>
 <path id="path5395" fill="url(#linearGradient3024)" d="m70.601 162.08s16.999 17.636 38.758 13.998c9.4747 90.692-53.381 82.237-11.145 21.283 0 0-41.943 1.1029-27.613-35.281z"/>
</svg>
